<mxfile host="app.diagrams.net" modified="2023-09-05T07:33:27.795Z" agent="Mozilla/5.0 (Windows NT 10.0; Win64; x64) AppleWebKit/537.36 (KHTML, like Gecko) Chrome/116.0.0.0 Safari/537.36" etag="bvfRl2OE7HsTS6XErGZJ" version="21.7.1" type="github">
  <diagram name="페이지-1" id="53Q3UClLWomSRLcQ5Eca">
    <mxGraphModel dx="2074" dy="1142" grid="1" gridSize="10" guides="1" tooltips="1" connect="1" arrows="1" fold="1" page="1" pageScale="1" pageWidth="827" pageHeight="1169" math="0" shadow="0">
      <root>
        <mxCell id="0" />
        <mxCell id="1" parent="0" />
        <mxCell id="rM92m6WjBes2DzVafnE3-1" value="외부 사용자" style="shape=umlActor;verticalLabelPosition=bottom;verticalAlign=top;html=1;outlineConnect=0;" vertex="1" parent="1">
          <mxGeometry x="30" y="400" width="30" height="60" as="geometry" />
        </mxCell>
        <mxCell id="rM92m6WjBes2DzVafnE3-2" value="상행 버튼을 누른다" style="ellipse;whiteSpace=wrap;html=1;" vertex="1" parent="1">
          <mxGeometry x="370" y="345" width="120" height="65" as="geometry" />
        </mxCell>
        <mxCell id="rM92m6WjBes2DzVafnE3-3" value="하행 버튼을 누른다" style="ellipse;whiteSpace=wrap;html=1;" vertex="1" parent="1">
          <mxGeometry x="370" y="455" width="120" height="55" as="geometry" />
        </mxCell>
        <mxCell id="rM92m6WjBes2DzVafnE3-4" value="엘레베이터를 탄다&lt;br&gt;- 이건 액터가 하는 동작인데 ...&amp;nbsp;&lt;br&gt;다른건 기능? 느낌이고&amp;nbsp;" style="ellipse;whiteSpace=wrap;html=1;fillColor=#fff2cc;strokeColor=#d6b656;" vertex="1" parent="1">
          <mxGeometry x="264" y="220" width="170" height="80" as="geometry" />
        </mxCell>
        <mxCell id="rM92m6WjBes2DzVafnE3-6" value="내부 사용자" style="shape=umlActor;verticalLabelPosition=bottom;verticalAlign=top;html=1;outlineConnect=0;" vertex="1" parent="1">
          <mxGeometry x="40" y="1060" width="30" height="60" as="geometry" />
        </mxCell>
        <mxCell id="rM92m6WjBes2DzVafnE3-7" value="숫자 버튼을 누른다" style="ellipse;whiteSpace=wrap;html=1;" vertex="1" parent="1">
          <mxGeometry x="130" y="920" width="170" height="80" as="geometry" />
        </mxCell>
        <mxCell id="rM92m6WjBes2DzVafnE3-8" value="비상 호출 버튼을 누른다" style="ellipse;whiteSpace=wrap;html=1;" vertex="1" parent="1">
          <mxGeometry x="130" y="1030" width="170" height="80" as="geometry" />
        </mxCell>
        <mxCell id="rM92m6WjBes2DzVafnE3-9" value="엘레베이터를 탄다" style="ellipse;whiteSpace=wrap;html=1;" vertex="1" parent="1">
          <mxGeometry x="130" y="1140" width="170" height="80" as="geometry" />
        </mxCell>
        <mxCell id="rM92m6WjBes2DzVafnE3-10" value="엘레베이터를 기다린다" style="ellipse;whiteSpace=wrap;html=1;" vertex="1" parent="1">
          <mxGeometry x="310" y="1360" width="170" height="80" as="geometry" />
        </mxCell>
        <mxCell id="rM92m6WjBes2DzVafnE3-11" value="엘레베이터를 내린다" style="ellipse;whiteSpace=wrap;html=1;" vertex="1" parent="1">
          <mxGeometry x="130" y="1240" width="170" height="80" as="geometry" />
        </mxCell>
        <mxCell id="rM92m6WjBes2DzVafnE3-13" value="엘레베이터를 호출한다" style="ellipse;whiteSpace=wrap;html=1;" vertex="1" parent="1">
          <mxGeometry x="136" y="400" width="170" height="80" as="geometry" />
        </mxCell>
        <mxCell id="rM92m6WjBes2DzVafnE3-14" value="엘레베이터 호출을 취소한다" style="ellipse;whiteSpace=wrap;html=1;" vertex="1" parent="1">
          <mxGeometry x="80" y="230" width="170" height="60" as="geometry" />
        </mxCell>
        <mxCell id="rM92m6WjBes2DzVafnE3-17" value="&amp;lt;&amp;lt;include&amp;gt;&amp;gt;" style="html=1;verticalAlign=bottom;labelBackgroundColor=none;endArrow=open;endFill=0;dashed=1;rounded=0;entryX=0.365;entryY=0.038;entryDx=0;entryDy=0;entryPerimeter=0;exitX=0.453;exitY=1.05;exitDx=0;exitDy=0;exitPerimeter=0;" edge="1" parent="1" source="rM92m6WjBes2DzVafnE3-14" target="rM92m6WjBes2DzVafnE3-13">
          <mxGeometry width="160" relative="1" as="geometry">
            <mxPoint x="166" y="300" as="sourcePoint" />
            <mxPoint x="326" y="300" as="targetPoint" />
          </mxGeometry>
        </mxCell>
        <mxCell id="rM92m6WjBes2DzVafnE3-18" value="&amp;lt;&amp;lt;include&amp;gt;&amp;gt;" style="html=1;verticalAlign=bottom;labelBackgroundColor=none;endArrow=open;endFill=0;dashed=1;rounded=0;entryX=0.629;entryY=0.013;entryDx=0;entryDy=0;entryPerimeter=0;exitX=0.106;exitY=0.813;exitDx=0;exitDy=0;exitPerimeter=0;" edge="1" parent="1" source="rM92m6WjBes2DzVafnE3-4" target="rM92m6WjBes2DzVafnE3-13">
          <mxGeometry width="160" relative="1" as="geometry">
            <mxPoint x="176" y="310" as="sourcePoint" />
            <mxPoint x="220" y="407" as="targetPoint" />
          </mxGeometry>
        </mxCell>
        <mxCell id="rM92m6WjBes2DzVafnE3-19" value="&amp;lt;&amp;lt;extend&amp;gt;&amp;gt;" style="html=1;verticalAlign=bottom;labelBackgroundColor=none;endArrow=open;endFill=0;dashed=1;rounded=0;entryX=0;entryY=0.5;entryDx=0;entryDy=0;exitX=0.847;exitY=0.125;exitDx=0;exitDy=0;exitPerimeter=0;" edge="1" parent="1" source="rM92m6WjBes2DzVafnE3-13" target="rM92m6WjBes2DzVafnE3-2">
          <mxGeometry width="160" relative="1" as="geometry">
            <mxPoint x="290" y="410" as="sourcePoint" />
            <mxPoint x="450" y="410" as="targetPoint" />
          </mxGeometry>
        </mxCell>
        <mxCell id="rM92m6WjBes2DzVafnE3-20" value="&amp;lt;&amp;lt;extend&amp;gt;&amp;gt;" style="html=1;verticalAlign=bottom;labelBackgroundColor=none;endArrow=open;endFill=0;dashed=1;rounded=0;entryX=0;entryY=0.5;entryDx=0;entryDy=0;" edge="1" parent="1" target="rM92m6WjBes2DzVafnE3-3">
          <mxGeometry width="160" relative="1" as="geometry">
            <mxPoint x="290" y="465" as="sourcePoint" />
            <mxPoint x="370" y="440" as="targetPoint" />
          </mxGeometry>
        </mxCell>
      </root>
    </mxGraphModel>
  </diagram>
</mxfile>
